<?xml version="1.0" encoding="UTF-8" standalone="no"?>
<!DOCTYPE svg PUBLIC "-//W3C//DTD SVG 1.1//EN" "http://www.w3.org/Graphics/SVG/1.1/DTD/svg11.dtd">
<svg width="100%" height="100%" viewBox="0 0 40 40" version="1.1" xmlns="http://www.w3.org/2000/svg" xmlns:xlink="http://www.w3.org/1999/xlink" xml:space="preserve" xmlns:serif="http://www.serif.com/" style="fill-rule:evenodd;clip-rule:evenodd;stroke-linejoin:round;stroke-miterlimit:1.41421;">
    <g transform="matrix(1.6,0,0,1.6,-230.4,-137.32)">
        <clipPath id="_clip1">
            <path d="M149.54,100.933L148.67,104.181L145.49,104.249C144.539,102.486 144,100.468 144,98.325C144,96.252 144.504,94.297 145.398,92.576L145.398,92.576L148.23,93.095L149.47,95.91C149.211,96.667 149.069,97.479 149.069,98.325C149.069,99.242 149.236,100.122 149.54,100.933Z"/>
        </clipPath>
        <g clip-path="url(#_clip1)">
            <rect x="139" y="87.576" width="15.54" height="21.672" style="fill:rgb(251,187,0);"/>
        </g>
    </g>
    <g transform="matrix(1.6,0,0,1.6,-230.4,-125.74)">
        <clipPath id="_clip2">
            <path d="M168.782,88.752C168.925,89.508 169,90.289 169,91.087C169,91.982 168.906,92.855 168.727,93.697C168.118,96.563 166.528,99.065 164.326,100.835L164.325,100.835L160.758,100.653L160.253,97.501C161.715,96.644 162.857,95.303 163.459,93.697L156.775,93.697L156.775,88.752L168.782,88.752Z"/>
        </clipPath>
        <g clip-path="url(#_clip2)">
            <rect x="151.775" y="83.752" width="22.225" height="22.083" style="fill:rgb(81,142,248);"/>
        </g>
    </g>
    <g transform="matrix(1.6,0,0,1.6,-230.4,-113.427)">
        <clipPath id="_clip3">
            <path d="M164.325,93.139L164.326,93.14C162.183,94.862 159.462,95.892 156.5,95.892C151.74,95.892 147.601,93.231 145.49,89.316L149.54,86C150.596,88.817 153.314,90.823 156.5,90.823C157.869,90.823 159.153,90.453 160.253,89.806L164.325,93.139Z"/>
        </clipPath>
        <g clip-path="url(#_clip3)">
            <rect x="140.49" y="81" width="28.836" height="19.892" style="fill:rgb(40,180,70);"/>
        </g>
    </g>
    <g transform="matrix(1.6,0,0,1.6,-230.4,-161.464)">
        <clipPath id="_clip4">
            <path d="M164.479,103.793L160.429,107.108C159.29,106.396 157.943,105.984 156.5,105.984C153.242,105.984 150.473,108.082 149.47,111L145.398,107.666L145.398,107.666C147.478,103.655 151.669,100.915 156.5,100.915C159.533,100.915 162.314,101.995 164.479,103.793Z"/>
        </clipPath>
        <g clip-path="url(#_clip4)">
            <rect x="140.398" y="95.915" width="29.081" height="20.085" style="fill:rgb(241,67,54);"/>
        </g>
    </g>
</svg>
